<svg xmlns="http://www.w3.org/2000/svg" xmlns:xlink="http://www.w3.org/1999/xlink" width="42" height="42"><defs><linearGradient id="b" x1="868.253" x2="937.656" y1="521.354" y2="588.736" gradientTransform="translate(-1161.097 316.47) scale(1.34562)" gradientUnits="userSpaceOnUse" xlink:href="#a"/><linearGradient id="a"><stop offset="0" stop-color="#24f3d2"/><stop offset=".394" stop-color="#0674f0"/><stop offset=".507" stop-color="#6961b5"/><stop offset=".813" stop-color="#f34660"/><stop offset="1" stop-color="#ee078d"/></linearGradient></defs><g transform="translate(0 -1010.362)"><rect width="42" height="42" y="1010.362" fill="url(#b)" rx="8.876" ry="8.876"/><path fill="#fff" d="M22 1018.362a2.506 2.506 0 0 0-2.5 2.5c0 1.205.863 2.214 2 2.448v2.052h-7a.5.5 0 0 0-.5.5v2.551h-.002a2.508 2.508 0 0 0-1.998 2.45c0 1.204.863 2.213 2 2.446v2.053H9.5a.5.5 0 0 0-.5.5v2.551a2.508 2.508 0 0 0-2 2.45c0 1.376 1.124 2.5 2.5 2.5s2.5-1.124 2.5-2.5a2.508 2.508 0 0 0-2-2.45v-2.05h9v2.05a2.508 2.508 0 0 0-2 2.45c0 1.376 1.124 2.5 2.5 2.5s2.5-1.124 2.5-2.5a2.508 2.508 0 0 0-2-2.45v-2.55a.5.5 0 0 0-.5-.5H15v-2.054h.002a2.506 2.506 0 0 0 1.998-2.447 2.51 2.51 0 0 0-2-2.449v-2.05h14v2.05h-.002a2.508 2.508 0 0 0-1.998 2.45c0 1.204.86 2.213 1.998 2.446v2.553a.5.5 0 0 0 .5.5H32v2.051h-.002a2.508 2.508 0 0 0-1.998 2.45c0 1.376 1.124 2.5 2.5 2.5s2.5-1.124 2.5-2.5a2.51 2.51 0 0 0-2-2.45v-2.55a.5.5 0 0 0-.5-.5h-2.502v-2.054a2.506 2.506 0 0 0 2.002-2.447 2.51 2.51 0 0 0-2-2.449v-2.55a.5.5 0 0 0-.5-.5h-7v-2.054h.002a2.506 2.506 0 0 0 1.998-2.447c0-1.376-1.124-2.5-2.5-2.5zm0 1c.84 0 1.5.66 1.5 1.5 0 .814-.622 1.453-1.424 1.492a.5.5 0 0 0-.084-.01.5.5 0 0 0-.072.01c-.8-.042-1.42-.68-1.42-1.492 0-.84.66-1.5 1.5-1.5zm-7.543 10.004h.002a.5.5 0 0 0 .078 0c.822.02 1.463.67 1.463 1.496 0 .814-.622 1.453-1.424 1.492a.5.5 0 0 0-.084-.01.5.5 0 0 0-.072.01c-.8-.04-1.42-.68-1.42-1.492 0-.825.639-1.473 1.457-1.496zm15 0h.002a.5.5 0 0 0 .078 0c.822.02 1.463.67 1.463 1.496 0 .824-.636 1.472-1.453 1.496a.5.5 0 0 0-.057 0 .5.5 0 0 0-.035 0 1.484 1.484 0 0 1-1.455-1.496c0-.825.639-1.473 1.457-1.496zm-20 10h.002a.5.5 0 0 0 .078 0c.822.02 1.463.67 1.463 1.496 0 .84-.66 1.5-1.5 1.5s-1.5-.66-1.5-1.5c0-.825.639-1.473 1.457-1.496zm10 0h.002a.5.5 0 0 0 .078 0c.822.02 1.463.67 1.463 1.496 0 .84-.66 1.5-1.5 1.5s-1.5-.66-1.5-1.5c0-.825.639-1.473 1.457-1.496zm13 0h.002a.5.5 0 0 0 .078 0c.822.02 1.463.67 1.463 1.496 0 .84-.66 1.5-1.5 1.5s-1.5-.66-1.5-1.5c0-.825.639-1.473 1.457-1.496z" color="#000" font-family="sans-serif" font-weight="400" overflow="visible" style="line-height:normal;text-indent:0;text-align:start;text-decoration-line:none;text-decoration-style:solid;text-decoration-color:#000;text-transform:none;block-progression:tb;isolation:auto;mix-blend-mode:normal"/></g></svg>