<svg xmlns="http://www.w3.org/2000/svg" enable-background="new 0 0 67 67" viewBox="0 0 67 67"><path fill="#BDD7F0" d="M1.48406,6.81357v44.49857c0,2.02143,1.6387,3.66013,3.66013,3.66013h56.75037
		c2.02143,0,3.66014-1.6387,3.66014-3.66013V6.81357c0-2.61758-2.12197-4.73955-4.73956-4.73955H6.22361
		C3.60603,2.07402,1.48406,4.19599,1.48406,6.81357z"/><path fill="#FFF" d="M5.48429,47.77717V6.7609c0-0.3787,0.33154-0.6871,0.73926-0.6871h54.5918
		c0.40723,0,0.73926,0.3084,0.73926,0.6871v41.01626H5.48429z"/><rect width="46.07" height="27.268" x="10.484" y="15.509" fill="#FFF"/><rect width="9.78" height="13.43" x="14.627" y="27.567" fill="#F6968A"/><rect width="25.8" height="13.431" x="27.755" y="26.347" fill="#FFF"/><rect width="40.07" height="4.733" x="14.495" y="19.5" fill="#BDD7F0"/><rect width="46.07" height="4.435" x="10.484" y="11.074" fill="#48A0D9"/><polygon fill="#BDD7F0" points="46.517 64.927 20.457 64.927 22.207 60.267 44.767 60.267"/><path fill="#48A0D9" d="M65.5272,47.77717v3.52991c0,2.03003-1.63995,3.67004-3.66998,3.67004h-56.75
		c-2.02002,0-3.65997-1.64001-3.65997-3.67004v-3.52991H65.5272z"/><path fill="#FFF" d="M35.36677 51.3667c0 1.05138-.83893 1.89018-1.87955 1.89018s-1.87955-.83879-1.87955-1.89018c0-1.02999.83893-1.87942 1.87955-1.87942S35.36677 50.33671 35.36677 51.3667zM15.82811 13.28847c0 .49499-.39163.89401-.88666.89401-.48764 0-.88666-.39902-.88666-.89401 0-.48777.39902-.8867.88666-.8867C15.43648 12.40177 15.82811 12.8007 15.82811 13.28847zM18.87595 13.28847c0 .49499-.39163.89401-.88666.89401-.48764 0-.88666-.39902-.88666-.89401 0-.48777.39902-.8867.88666-.8867C18.48432 12.40177 18.87595 12.8007 18.87595 13.28847zM21.92379 13.28847c0 .49499-.39163.89401-.88666.89401-.48764 0-.88666-.39902-.88666-.89401 0-.48777.39902-.8867.88666-.8867C21.53216 12.40177 21.92379 12.8007 21.92379 13.28847z"/><rect width="22.379" height="1" x="30.605" y="12.792" fill="#FFF"/><polygon fill="#3EBDA7" points="53.577 31.347 53.577 39.777 27.757 39.777 27.757 33.827 30.267 36.337 34.347 32.247 37.637 35.537 41.847 31.337 45.247 34.737 48.667 31.317 51.137 33.787"/><path fill="#223059" d="M23.76495 25.84514H12.98499v14.42993h10.77997V25.84514zM22.76495 39.27507h-8.77997V26.84514h8.77997V39.27507zM54.05499 25.84514H27.255v6.77991 7.65002h26.79999.01996v-10.13l-.01996.0199V25.84514zM28.255 26.84514h24.79999v4.31982l-1.92004 1.92016-2.46997-2.4801L45.245 34.02507l-3.40002-3.39001-4.21002 4.20007-3.28998-3.30005-4.08002 4.08996-2.00995-2V26.84514zM28.255 39.27507v-4.23999l2.00995 2.01001 4.08002-4.09009 3.28998 3.29004 4.21002-4.19995 3.40002 3.3999 3.41998-3.41992 2.46997 2.46997 1.92004-1.91992v6.69995H28.255zM54.05499 18.00505H12.98499v5.73999h41.07001V18.00505zM53.05499 22.74504H13.98499v-3.73999h39.07001V22.74504z"/><path fill="#223059" d="M9.98499,43.27507h47.07001c0-12.21936,0-20.92039,0-32.69995H9.98499
			C9.98499,22.45911,9.98499,31.03485,9.98499,43.27507z M56.05499,42.27507H10.98499V16.00505h45.07001V42.27507z
			 M10.98499,11.57512h45.07001v3.42993H10.98499V11.57512z"/><path fill="#223059" d="M60.815,1.57512H6.22498c-2.89001,0-5.23999,2.34985-5.23999,5.23999
			c-0.00814,9.0638,0.02083-23.18643-0.03998,44.48999c0,2.16992,1.65997,3.95996,3.77997,4.1499
			c0.14001,0.01001,0.28003,0.02002,0.41998,0.02002H26.255v4.29004h-4.39001l-2.13,5.65992h27.5l-2.12-5.65992h-4.40002v-4.29004
			h21.17999c0.13,0,0.26001-0.01001,0.39001-0.02002c2.10999-0.18994,3.77002-1.97998,3.77002-4.13989v-44.5
			C66.05499,3.92497,63.70496,1.57512,60.815,1.57512z M1.98499,6.81511c0-2.34009,1.89996-4.23999,4.23999-4.23999H60.815
			c2.33997,0,4.23999,1.8999,4.23999,4.23999v40.45996h-3V6.76506c0-0.66003-0.56-1.18994-1.23999-1.18994H6.22498
			c-0.67999,0-1.23999,0.52991-1.23999,1.18994v40.51001h-3V6.81511z M61.05499,47.27507H5.98499V6.76506
			c0-0.10999,0.10999-0.18994,0.23999-0.18994H60.815c0.13,0,0.23999,0.07996,0.23999,0.18994V47.27507z M44.42499,60.76506
			l1.37,3.65992h-24.62l1.38-3.65992C33.00793,60.76506,34.6202,60.76506,44.42499,60.76506z M39.71497,59.76506H27.255v-4.29004
			h12.45996V59.76506z M61.89496,54.47502c-11.78784,0-44.30523,0-56.75,0c-0.10999,0-0.21997-0.01001-0.32001-0.02002
			c-1.58997-0.15991-2.83997-1.51001-2.83997-3.13989v-3.04004c18.74387,0,44.69059,0,63.03998,0v3.03003
			c0,1.63989-1.25,2.98999-2.84998,3.1499C62.08496,54.47502,61.995,54.47502,61.89496,54.47502z"/><polygon fill="#223059" points="18.49 34.973 19.571 36.43 21.072 35.304 19.991 33.858 21.039 33.406 16.901 31.276 17.75 35.856"/></svg>